<?xml version="1.0" encoding="utf-8"?>
<!-- Generator: Adobe Illustrator 26.3.1, SVG Export Plug-In . SVG Version: 6.00 Build 0)  -->
<svg version="1.1" id="Layer_1" xmlns="http://www.w3.org/2000/svg" xmlns:xlink="http://www.w3.org/1999/xlink" x="0px" y="0px"
	 viewBox="0 0 132 17.1" style="enable-background:new 0 0 132 17.1;" xml:space="preserve">
<style type="text/css">
	.st0{fill:#333333;}
</style>
<g>
	<path d="M4,11.7c0,1.1,1.3,1.7,2.6,1.7c1.2,0,2.5-0.6,2.5-1.5c0-1.6-1.8-1.6-3-1.7c-3-0.2-6-1.4-6-4.8c0-3.5,3-5.3,6.3-5.3
		c3.1,0,6.3,1.8,6.3,5.3h-4c0-1.1-1.1-1.6-2.2-1.6c-1,0-2.2,0.3-2.2,1.5c0,1.1,0.9,1.4,2.5,1.5c3.5,0.3,6.5,1.1,6.5,5.1
		c0,3.4-3.3,5.2-6.7,5.2c-3.4,0-6.8-1.7-6.7-5.4L4,11.7L4,11.7z"/>
	<path class="st0" d="M15.3,15c0-1.3,1-2.1,2.3-2.1c1.3,0,2.3,0.8,2.3,2.1s-1,2.1-2.3,2.1C16.3,17.1,15.3,16.3,15.3,15z"/>
	<path d="M29.9,0.2c3.4,0,7,1.8,7.7,6.2h-4.1c-0.6-1.7-1.8-2.3-3.6-2.3c-2.5,0-4.1,1.8-4.1,4.5c0,2.4,1.6,4.4,4.1,4.4
		c1.8,0,3.2-0.8,3.6-2.6h4.1c-0.6,4.6-4.2,6.5-7.7,6.5c-4.2,0-8.3-2.8-8.3-8.3C21.6,3,25.7,0.2,29.9,0.2z"/>
	<path d="M49.4,16.7v-6.5h-5.1v6.5h-4.3V0.4h4.3v5.9h5.1V0.4h4.3v16.3C53.7,16.7,49.4,16.7,49.4,16.7z"/>
	<path d="M67.4,4.1h-5.9v2.3h5.4v3.7h-5.4v2.7h6.1v3.9H57.2V0.4h10.2V4.1z"/>
	<path d="M77.8,0.2c3.4,0,7,1.8,7.7,6.2h-4.1c-0.6-1.7-1.8-2.3-3.6-2.3c-2.5,0-4.1,1.8-4.1,4.5c0,2.4,1.6,4.4,4.1,4.4
		c1.8,0,3.2-0.8,3.6-2.6h4.1c-0.6,4.6-4.2,6.5-7.7,6.5c-4.2,0-8.3-2.8-8.3-8.3C69.5,3,73.6,0.2,77.8,0.2z"/>
	<path d="M94.3,10.4c-0.5,0.1-1.4,0.1-2,0.1v6.2H88V0.4h4.3v6.4c0.7,0,1.8,0.1,2.4-0.3c0.7-0.4,1-1.4,1.5-3.3c0.5-2,2.1-3.6,5.9-2.8
		v2.9c-1-0.1-1.7,0.2-2,1.2c-0.5,2-1.1,3.3-2,4.3c1.6,2.4,3.1,4.9,4.7,7.3v0.6h-4.8L94.3,10.4z"/>
	<path d="M115,4.1h-5.9v2.3h5.4v3.7h-5.4v2.7h6.1v3.9h-10.4V0.4H115V4.1z"/>
	<path d="M132,16.1v0.6h-4.5l-2.8-5.1h-2.2v5.1h-4.3V0.4c2.4,0,4.8,0,7.2,0c3.9,0,5.9,2.9,5.9,5.8c0,1.9-0.8,3.7-2.4,4.7L132,16.1z
		 M125.3,8.1c1.2,0,1.8-1,1.8-2.1c0-1-0.6-2-1.8-2h-3v4L125.3,8.1L125.3,8.1z"/>
</g>
</svg>
