<svg id="Layer_1" data-name="Layer 1" xmlns="http://www.w3.org/2000/svg" viewBox="0 0 12 12"><defs><style>.cls-1{fill:#e8e8e8;}.cls-2{fill:#fff;stroke:#ccc;stroke-width:0.5px;}.cls-2,.cls-3{stroke-miterlimit:10;}.cls-3{fill:none;stroke:#8cc63f;stroke-width:0.25px;}.cls-4{fill:#8cc63f;}</style></defs><rect class="cls-1" x="-974.92" y="-253.79" width="1920" height="768.4"/><rect class="cls-2" x="-28.43" y="-145.21" width="361.78" height="516.51" rx="4"/><rect class="cls-3" x="-3.01" y="-6.24" width="62.61" height="23" rx="4"/><path class="cls-4" d="M5.55,8.56,9.19,4.94,8.07,3.81,5.55,6.31l-1-1L3.39,6.41ZM6,12a5.93,5.93,0,0,1-2.34-.47A5.93,5.93,0,0,1,.47,8.34,5.93,5.93,0,0,1,0,6,5.94,5.94,0,0,1,.47,3.65a6.18,6.18,0,0,1,1.28-1.9A6.1,6.1,0,0,1,3.66.47,5.93,5.93,0,0,1,6,0,5.94,5.94,0,0,1,8.35.47a6,6,0,0,1,3.18,3.18A5.94,5.94,0,0,1,12,6a5.93,5.93,0,0,1-.47,2.34,6.1,6.1,0,0,1-1.28,1.91,6.18,6.18,0,0,1-1.9,1.28A5.94,5.94,0,0,1,6,12Z"/></svg>