<svg id="Layer_1" data-name="Layer 1" xmlns="http://www.w3.org/2000/svg" viewBox="0 0 8.33 8.33"><defs><style>.cls-1{fill:#b0b0b0;}</style></defs><path class="cls-1" d="M3.73,6.16h.88V4.61H6.16V3.73H4.61V2.17H3.73V3.73H2.17v.88H3.73Zm.44,2.17A4.05,4.05,0,0,1,2.54,8a4.15,4.15,0,0,1-1.32-.89,4.22,4.22,0,0,1-.9-1.33A4.14,4.14,0,0,1,0,4.17,4.16,4.16,0,0,1,.32,2.54,4.3,4.3,0,0,1,2.54.32,4.31,4.31,0,0,1,5.8.32a4.3,4.3,0,0,1,1.32.9A4.15,4.15,0,0,1,8,2.54a4,4,0,0,1,.32,1.63A4,4,0,0,1,8,5.79a4.2,4.2,0,0,1-.89,1.33A4.27,4.27,0,0,1,5.8,8,4,4,0,0,1,4.17,8.33Z"/></svg>