<svg id="Layer_1" data-name="Layer 1" xmlns="http://www.w3.org/2000/svg" viewBox="0 0 10.01 7.21"><defs><style>.cls-1{fill:#b0b0b0;}</style></defs><path class="cls-1" d="M.87,7.21A.82.82,0,0,1,.26,7,.87.87,0,0,1,0,6.35a.83.83,0,0,1,.26-.61.8.8,0,0,1,.61-.26.79.79,0,0,1,.6.26.82.82,0,0,1,.25.61A.89.89,0,0,1,1.48,7,.81.81,0,0,1,.87,7.21Zm0-2.74a.82.82,0,0,1-.61-.25A.85.85,0,0,1,0,3.61.83.83,0,0,1,.26,3,.83.83,0,0,1,1.47,3a.82.82,0,0,1,.25.61.87.87,0,0,1-.24.61A.81.81,0,0,1,.87,4.47Zm0-2.73a.83.83,0,0,1-.61-.26A.85.85,0,0,1,0,.87.83.83,0,0,1,.26.26a.83.83,0,0,1,1.21,0,.82.82,0,0,1,.25.61.87.87,0,0,1-.24.61A.82.82,0,0,1,.87,1.74ZM2.58,7.15V5.55H10v1.6Zm0-2.74V2.81H10v1.6Zm0-2.74V.07H10v1.6Z"/></svg>