<svg id="Layer_1" data-name="Layer 1" xmlns="http://www.w3.org/2000/svg" viewBox="0 0 19.81 19.81"><defs><style>.cls-1{fill:#e8e8e8;}.cls-2{fill:#fff;stroke:#ccc;stroke-miterlimit:10;stroke-width:0.5px;}</style></defs><rect class="cls-1" x="-1510.51" y="-233.12" width="1920" height="768.4"/><rect class="cls-2" x="-28.87" y="-26.44" width="77.62" height="71.34" rx="4" transform="translate(19.89 18.46) rotate(180)"/><path d="M5.64,11.33A1.42,1.42,0,0,0,7.06,9.91a1.4,1.4,0,0,0-.41-1,1.37,1.37,0,0,0-1-.42,1.38,1.38,0,0,0-1,.42,1.4,1.4,0,0,0-.41,1,1.42,1.42,0,0,0,1.42,1.42Zm4.27,0a1.43,1.43,0,0,0,1.42-1.42,1.37,1.37,0,0,0-.42-1,1.34,1.34,0,0,0-1-.42A1.43,1.43,0,0,0,8.48,9.91a1.34,1.34,0,0,0,.42,1A1.37,1.37,0,0,0,9.91,11.33Zm4.26,0a1.37,1.37,0,0,0,1-.42,1.34,1.34,0,0,0,.41-1,1.42,1.42,0,1,0-2.42,1A1.34,1.34,0,0,0,14.17,11.33ZM9.91,19.81A9.62,9.62,0,0,1,6,19,9.86,9.86,0,0,1,0,9.91,9.77,9.77,0,0,1,.77,6,9.92,9.92,0,0,1,6,.77,9.79,9.79,0,0,1,9.91,0a9.72,9.72,0,0,1,3.87.77A10,10,0,0,1,19,6a9.6,9.6,0,0,1,.77,3.88A9.61,9.61,0,0,1,19,13.77,9.92,9.92,0,0,1,13.78,19,9.55,9.55,0,0,1,9.91,19.81Z"/></svg>