<svg id="Layer_1" data-name="Layer 1" xmlns="http://www.w3.org/2000/svg" viewBox="0 0 23.21 25.69"><defs><style>.cls-1{fill:#e8e8e8;}.cls-2{fill:#fff;stroke:#ccc;stroke-miterlimit:10;stroke-width:0.5px;}</style></defs><rect class="cls-1" x="-1424.77" y="-227.9" width="1920" height="768.4"/><rect class="cls-2" x="-1039.38" y="-21.22" width="1085.91" height="71.34" rx="4"/><path d="M4.07,25.69a4,4,0,0,1-2.88-1.17A3.94,3.94,0,0,1,0,21.62V17.36H4.07v4.26H19.14V17.36h4.07v4.26A3.88,3.88,0,0,1,22,24.52a4,4,0,0,1-2.86,1.17Zm7.57-7.79L3.53,9.79,6.42,7,9.6,10.21V0h4.07V10.21L16.85,7l2.93,2.79Z"/></svg>