<svg id="Layer_1" data-name="Layer 1" xmlns="http://www.w3.org/2000/svg" viewBox="0 0 19.81 19.81"><defs><style>.cls-1{fill:#e8e8e8;}.cls-2{fill:#fff;}.cls-3{fill:#8cc63f;}</style></defs><rect class="cls-1" x="-1510.53" y="-481.29" width="1920" height="768.4"/><rect class="cls-2" x="-28.64" y="-26.19" width="77.12" height="70.84" rx="3.75"/><path class="cls-3" d="M44.73-25.94a3.5,3.5,0,0,1,3.5,3.5V40.9a3.5,3.5,0,0,1-3.5,3.5H-24.89a3.5,3.5,0,0,1-3.5-3.5V-22.44a3.5,3.5,0,0,1,3.5-3.5H44.73m0-.5H-24.89a4,4,0,0,0-4,4V40.9a4,4,0,0,0,4,4H44.73a4,4,0,0,0,4-4V-22.44a4,4,0,0,0-4-4Z"/><path class="cls-3" d="M8.63,13.79l6-6L12.77,6,8.63,10.07,6.9,8.37,5.05,10.24Zm1.28,6A9.62,9.62,0,0,1,6,19,9.86,9.86,0,0,1,0,9.91,9.77,9.77,0,0,1,.77,6,9.92,9.92,0,0,1,6,.77,9.79,9.79,0,0,1,9.91,0a9.72,9.72,0,0,1,3.87.77A10,10,0,0,1,19,6a9.6,9.6,0,0,1,.77,3.88A9.61,9.61,0,0,1,19,13.77,9.92,9.92,0,0,1,13.78,19,9.55,9.55,0,0,1,9.91,19.81Z"/></svg>