<svg id="Layer_1" data-name="Layer 1" xmlns="http://www.w3.org/2000/svg" viewBox="0 0 19.81 19.81"><defs><style>.cls-1{fill:#e8e8e8;}.cls-2{fill:#fff;}.cls-3{fill:red;}</style></defs><rect class="cls-1" x="-1510.65" y="-398.33" width="1920" height="768.4"/><rect class="cls-2" x="-28.75" y="-25.95" width="77.12" height="70.84" rx="3.75"/><path class="cls-3" d="M44.62-25.7a3.5,3.5,0,0,1,3.5,3.5V41.14a3.5,3.5,0,0,1-3.5,3.5H-25a3.5,3.5,0,0,1-3.5-3.5V-22.2A3.5,3.5,0,0,1-25-25.7H44.62m0-.5H-25a4,4,0,0,0-4,4V41.14a4,4,0,0,0,4,4H44.62a4,4,0,0,0,4-4V-22.2a4,4,0,0,0-4-4Z"/><path class="cls-3" d="M6.83,14.46l3.08-3.08L13,14.46,14.46,13,11.38,9.91l3.08-3.08L13,5.36,9.91,8.44,6.83,5.36,5.36,6.83,8.44,9.91,5.36,13Zm3.08,5.35A9.62,9.62,0,0,1,6,19,9.86,9.86,0,0,1,0,9.91,9.77,9.77,0,0,1,.77,6,9.92,9.92,0,0,1,6,.77,9.79,9.79,0,0,1,9.91,0a9.72,9.72,0,0,1,3.87.77A10,10,0,0,1,19,6a9.6,9.6,0,0,1,.77,3.88A9.61,9.61,0,0,1,19,13.77,9.92,9.92,0,0,1,13.78,19,9.55,9.55,0,0,1,9.91,19.81Z"/></svg>