<svg id="Layer_1" data-name="Layer 1" xmlns="http://www.w3.org/2000/svg" viewBox="0 0 20.23 19.69"><defs><style>.cls-1{fill:#e8e8e8;}.cls-2{fill:#fff;stroke:#ccc;stroke-miterlimit:10;stroke-width:0.5px;}</style></defs><rect class="cls-1" x="-1510.21" y="-315.78" width="1920" height="768.4"/><rect class="cls-2" x="-28.57" y="-26.38" width="77.62" height="71.34" rx="4" transform="translate(20.48 18.58) rotate(180)"/><path d="M6.9,19.69l-.39-3.11a.66.66,0,0,0-.17-.14l-.22-.09L3.24,17.58,0,11.93l2.45-1.86a.36.36,0,0,0,0-.11V9.73a.36.36,0,0,0,0-.11L0,7.76l3.24-5.6,2.93,1.2a.71.71,0,0,0,.18-.08.7.7,0,0,0,.16-.13L6.9,0h6.44l.38,3.15a.4.4,0,0,0,.17.13l.22.08L17,2.16l3.24,5.6L17.78,9.62a.36.36,0,0,0,0,.11v.11a.53.53,0,0,1,0,.12.11.11,0,0,0,0,.11l2.45,1.86L17,17.58l-2.91-1.23a.76.76,0,0,0-.18.09l-.16.14-.38,3.11Zm3.15-6.6a3.15,3.15,0,0,0,2.29-.95,3.12,3.12,0,0,0,.95-2.3,3.11,3.11,0,0,0-.95-2.29,3.22,3.22,0,0,0-4.57,0,3.2,3.2,0,0,0,0,4.59A3.14,3.14,0,0,0,10.05,13.09Z"/></svg>