<svg id="Layer_1" data-name="Layer 1" xmlns="http://www.w3.org/2000/svg" viewBox="0 0 9.23 9.21"><defs><style>.cls-1{fill:#e8e8e8;}.cls-2{fill:#fff;stroke:#ccc;stroke-miterlimit:10;stroke-width:0.5px;}</style></defs><rect class="cls-1" x="-385.62" y="-111.41" width="1920" height="768.4"/><rect class="cls-2" x="-24.94" y="-13.47" width="1198.98" height="90.13" rx="4"/><path d="M4.28,9.21a.9.9,0,0,1-.64-.27.87.87,0,0,1-.28-.63v-3L.2,1.45A.85.85,0,0,1,.1.5.84.84,0,0,1,.91,0H8.32a.84.84,0,0,1,.81.5.84.84,0,0,1-.11,1L5.87,5.33V8.5A.69.69,0,0,1,5.66,9a.76.76,0,0,1-.53.2Z"/></svg>