<svg id="Layer_1" data-name="Layer 1" xmlns="http://www.w3.org/2000/svg" viewBox="0 0 7.53 7.52"><defs><style>.cls-1{fill:#e8e8e8;}.cls-2{fill:#fff;stroke:#ccc;stroke-width:0.5px;}.cls-2,.cls-3{stroke-miterlimit:10;}.cls-3{fill:none;stroke:#191919;stroke-width:0.25px;}.cls-4{fill:#a5a5a5;}</style></defs><rect class="cls-1" x="-496.19" y="-151.83" width="1920" height="768.4"/><rect class="cls-2" x="-135.51" y="-53.9" width="1198.98" height="90.13" rx="4"/><rect class="cls-3" x="-5.97" y="-7.8" width="204" height="23" rx="4"/><path class="cls-4" d="M6.62,7.52,4.17,5.05a2.79,2.79,0,0,1-.66.28,2.9,2.9,0,0,1-.79.1A2.62,2.62,0,0,1,.79,4.64,2.61,2.61,0,0,1,0,2.72,2.62,2.62,0,0,1,.79.79,2.62,2.62,0,0,1,2.72,0,2.61,2.61,0,0,1,4.64.79a2.62,2.62,0,0,1,.79,1.93,2.78,2.78,0,0,1-.1.78,2.44,2.44,0,0,1-.28.64L7.53,6.62ZM2.72,4.16a1.42,1.42,0,0,0,1-.41,1.4,1.4,0,0,0,.42-1,1.4,1.4,0,0,0-.42-1,1.42,1.42,0,0,0-1-.41A1.4,1.4,0,0,0,1.28,2.72,1.4,1.4,0,0,0,2.72,4.16Z"/></svg>